<svg width="30" height="30" viewBox="0 0 30 30" fill="none" xmlns="http://www.w3.org/2000/svg">
<path d="M23.2259 0H6.77414C3.03289 0 0 3.04693 0 6.80551V23.1945C0 26.9531 3.03289 30 6.77414 30H23.2259C26.9671 30 30 26.9531 30 23.1945V6.80551C30 3.04693 26.9671 0 23.2259 0Z" fill="#4285F4"/>
<path fill-rule="evenodd" clip-rule="evenodd" d="M16.8173 30H11.3764V19.5906H8.28322V14.9856H11.3764V13.0014C11.3764 7.8722 13.6869 5.49476 18.6993 5.49476C19.6495 5.49476 21.2893 5.68201 21.9601 5.8692V10.0436C21.606 10.0062 20.9912 9.98752 20.2271 9.98752C17.7676 9.98752 16.8173 10.9235 16.8173 13.357V14.9856H21.7168L20.8751 19.5906H16.8173V30Z" fill="white"/>
</svg>
