<svg width="30" height="30" viewBox="0 0 30 30" fill="none" xmlns="http://www.w3.org/2000/svg">
<path fill-rule="evenodd" clip-rule="evenodd" d="M6.7749 0H23.2251C25.0203 0.0051772 26.7406 0.723949 28.01 1.99929C29.2794 3.27463 29.9948 5.00288 30 6.80648V23.196C29.9942 24.9991 29.2785 26.7268 28.0091 28.0016C26.7398 29.2764 25.0199 29.9948 23.2251 30H6.7749C4.98009 29.9948 3.26023 29.2764 1.99087 28.0016C0.721518 26.7268 0.00579691 24.9991 0 23.196V6.80648C0.00515319 5.00288 0.72059 3.27463 1.99002 1.99929C3.25944 0.723949 4.97967 0.0051772 6.7749 0Z" fill="#4285F4"/>
<path fill-rule="evenodd" clip-rule="evenodd" d="M12.0093 11.6286H15.8008V13.5909H15.8545C16.3843 12.6392 17.6733 11.6286 19.5996 11.6286C23.6011 11.6286 24.3408 14.1305 24.3408 17.3853V24.2678H20.3882V18.1506C20.3882 16.7501 20.3589 14.9473 18.3325 14.9473C16.3062 14.9473 15.9595 16.4704 15.9595 18.05V24.2801H12.0093V11.6286ZM9.76562 7.7974C9.76562 8.20587 9.64506 8.60516 9.41918 8.94479C9.1933 9.28442 8.87225 9.54912 8.49663 9.70544C8.12101 9.86175 7.70768 9.90265 7.30892 9.82296C6.91016 9.74327 6.54388 9.54658 6.25639 9.25775C5.9689 8.96892 5.77311 8.60093 5.6938 8.20031C5.61448 7.79969 5.65519 7.38444 5.81078 7.00707C5.96636 6.62969 6.22984 6.30715 6.56789 6.08021C6.90595 5.85328 7.30339 5.73216 7.70996 5.73216C8.25496 5.73281 8.77745 5.9506 9.16282 6.33777C9.54819 6.72494 9.76498 7.24986 9.76562 7.7974ZM5.65918 11.6286H9.76562V24.2678H5.65918V11.6286Z" fill="white"/>
</svg>
