<svg width="24" height="30" viewBox="0 0 24 30" fill="none" xmlns="http://www.w3.org/2000/svg">
<path d="M8 10H17V21H8V10Z" fill="white"/>
<path fill-rule="evenodd" clip-rule="evenodd" d="M15.4018 0.661316C18.2132 -0.813325 21.6941 0.260916 23.1738 3.06127C24.6535 5.86162 23.5741 9.32605 20.7627 10.8007L18.4509 12.0239C20.4425 12.0971 22.3418 13.1982 23.3363 15.0806C24.816 17.8809 23.739 21.3454 20.9252 22.82L8.5977 29.3387C5.7863 30.8133 2.30541 29.7391 0.825721 26.9387C-0.653963 24.1384 0.425478 20.6739 3.23688 19.1993L5.54858 17.9761C3.55707 17.9029 1.65774 16.8018 0.663198 14.9194C-0.816486 12.1191 0.262956 8.65465 3.07436 7.18001L15.4018 0.661316ZM8.7481 10.3832L16.2096 15.0195L8.7481 19.6339V10.3832Z" fill="#EA4335"/>
</svg>
