<svg width="30" height="30" viewBox="0 0 30 30" fill="none" xmlns="http://www.w3.org/2000/svg">
<path d="M23.1998 0H6.80016C3.04453 0 0 3.04453 0 6.80016V23.1998C0 26.9555 3.04453 30 6.80016 30H23.1998C26.9555 30 30 26.9555 30 23.1998V6.80016C30 3.04453 26.9555 0 23.1998 0Z" fill="#101010"/>
<path d="M20.4415 8.9107C21.1924 9.6849 22.1287 10.1567 23.0723 10.3714V9.79008C22.1857 9.72721 21.258 9.44824 20.4415 8.9107ZM15.0175 5.07609V18.0772C15.0175 19.7804 13.7934 20.876 12.3049 20.876C11.8111 20.876 11.3422 20.7606 10.9346 20.5474C11.4517 21.2077 12.2683 21.5875 13.1638 21.5875C14.6524 21.5875 15.8765 20.4919 15.8765 18.7871V5.78602H18.2357C18.1698 5.55252 18.1171 5.31551 18.0779 5.07609H15.0175ZM13.082 12.6342V11.99C12.784 11.9404 12.486 11.9243 12.2391 11.9243C8.88076 11.9243 6.06867 14.6195 6.06867 17.9618C6.06867 20.1559 7.13654 22.0315 8.75947 23.1418C7.62885 22.0199 6.92766 20.4495 6.92766 18.6717C6.92766 15.3352 9.73096 12.6415 13.082 12.6342Z" fill="#4285F4"/>
<path d="M18.4241 17.8624C18.4241 22.014 15.2484 24.214 12.2552 24.214C10.9594 24.214 9.75574 23.8225 8.75947 23.1418C9.87844 24.252 11.4182 24.9239 13.1141 24.9239C16.1073 24.9239 19.2831 22.7239 19.2831 18.5724V11.8075C18.9851 11.6058 18.6987 11.3706 18.4241 11.096V17.8624ZM10.9346 20.5474C10.5694 20.0857 10.3518 19.4883 10.3518 18.7871C10.3518 16.8194 11.89 15.7794 13.9409 15.9955V12.7C13.643 12.6503 13.345 12.6342 13.0966 12.6342H13.082V15.2841C11.031 15.0694 9.49277 16.108 9.49277 18.0772C9.49277 19.2282 10.0815 20.1018 10.9346 20.5474ZM23.0723 10.3714L23.0724 12.8329C21.7095 12.8329 20.4196 12.5729 19.2831 11.8075C20.6065 13.1309 22.212 13.5443 23.9313 13.5443V10.5C23.642 10.4806 23.3547 10.4376 23.0723 10.3714ZM20.4415 8.9107C19.7155 8.16422 19.1618 7.13578 18.9369 5.78602H18.2357C18.6359 7.24535 19.4598 8.26354 20.4415 8.9107Z" fill="#F1204A"/>
<path d="M12.2552 24.214C15.2484 24.214 18.4241 22.014 18.4241 17.8624V11.096C18.6987 11.3706 18.9851 11.6058 19.2831 11.8075C20.4196 12.5729 21.7095 12.8329 23.0724 12.8329L23.0723 10.3714C22.1287 10.1567 21.1924 9.6849 20.4415 8.9107C19.4598 8.26354 18.6359 7.24535 18.2357 5.78602H15.8765V18.7871C15.8765 20.4919 14.6524 21.5875 13.1638 21.5875C12.2683 21.5875 11.4517 21.2077 10.9346 20.5474C10.0815 20.1018 9.49277 19.2282 9.49277 18.0772C9.49277 16.108 11.031 15.0694 13.082 15.2841V12.6342C9.73096 12.6415 6.92766 15.3352 6.92766 18.6717C6.92766 20.4495 7.62885 22.0199 8.75947 23.1418C9.75574 23.8225 10.9594 24.214 12.2552 24.214Z" fill="white"/>
</svg>
