<svg width="30" height="30" viewBox="0 0 30 30" fill="none" xmlns="http://www.w3.org/2000/svg">
<path d="M23.226 0H6.77402C3.03283 0 0 3.04688 0 6.80539V23.1946C0 26.9531 3.03283 30 6.77402 30H23.226C26.9672 30 30 26.9531 30 23.1946V6.80539C30 3.04688 26.9672 0 23.226 0Z" fill="#101010"/>
<path d="M18.9691 8.73263H21.0855L16.4619 14.0423L21.9012 21.2668H17.642L14.3063 16.8854L10.4889 21.2668H8.37129L13.3166 15.5881L8.09883 8.73263H12.4658L15.4811 12.7378L18.9691 8.73263ZM18.2262 19.9941H19.3992L11.8289 9.93878H10.5703L18.2262 19.9941Z" fill="white"/>
</svg>
