<svg width="796" height="299" viewBox="0 0 796 299" fill="none" xmlns="http://www.w3.org/2000/svg">
<path d="M151.611 0H158.936C163.005 0 165.365 1.05794 166.016 3.17383C117.513 83.903 93.2617 127.36 93.2617 133.545C90.8203 136.475 88.8672 140.544 87.4023 145.752H88.3789C107.259 145.752 131.836 127.686 162.109 91.5527C173.503 75.4395 182.129 59.1634 187.988 42.7246C195.15 25.472 206.217 16.8457 221.191 16.8457C226.074 17.334 228.516 18.1478 228.516 19.2871C222.168 34.0983 215.658 51.4323 208.984 71.2891C192.383 105.632 166.748 129.639 132.08 143.311C132.08 144.45 133.952 145.264 137.695 145.752C147.949 150.472 153.076 159.342 153.076 172.363V176.514C153.076 192.464 143.88 218.913 125.488 255.859C121.745 267.09 119.873 274.414 119.873 277.832V278.564L122.314 281.006H123.291C131.429 281.006 147.868 264.811 172.607 232.422H173.34L177.49 236.572C150.309 275.96 129.476 295.654 114.99 295.654C104.085 295.654 97.9004 288.656 96.4355 274.658C96.4355 263.59 102.946 241.455 115.967 208.252C119.222 196.696 120.85 187.5 120.85 180.664V177.246C120.85 166.341 115.641 158.773 105.225 154.541L99.6094 153.809C87.2396 154.785 81.0547 156.657 81.0547 159.424L32.4707 295.654H27.5879C12.2884 295.654 3.09245 290.283 0 279.541C0 268.962 19.2057 221.68 57.6172 137.695C96.6797 58.2682 117.432 18.3105 119.873 17.8223C129.801 5.94076 140.381 0 151.611 0ZM324.951 114.502H329.834C335.205 114.502 340.576 118.652 345.947 126.953C302.002 214.193 280.029 263.672 280.029 275.391C280.68 277.995 282.552 279.297 285.645 279.297C293.945 278.646 313.151 259.44 343.262 221.68H344.238L347.9 225.586V226.562C318.604 269.368 295.654 292.318 279.053 295.41H271.484C262.858 295.41 258.057 288.411 257.08 274.414V266.846C236.735 287.842 217.285 298.34 198.73 298.34H190.918C175.618 298.34 167.969 285.563 167.969 260.01V253.418C167.969 218.913 190.348 182.21 235.107 143.311C252.035 131.755 265.055 125.977 274.17 125.977H281.982C288.981 125.977 296.305 130.452 303.955 139.404C311.117 122.803 318.115 114.502 324.951 114.502ZM204.346 260.01V265.869C204.346 278.564 209.147 284.912 218.75 284.912C228.678 284.912 243.001 271.81 261.719 245.605C273.926 207.194 286.051 175.293 298.096 149.902C295.003 140.951 289.958 136.475 282.959 136.475C263.265 142.334 242.839 164.388 221.68 202.637C210.124 224.609 204.346 243.734 204.346 260.01ZM394.043 97.4121C407.552 98.7142 414.307 103.923 414.307 113.037C413.493 124.919 408.936 137.858 400.635 151.855C419.678 176.595 429.199 202.23 429.199 228.76C429.199 254.476 417.806 275.716 395.02 292.48C385.417 296.224 377.035 298.096 369.873 298.096C350.179 298.096 340.332 290.365 340.332 274.902C340.332 260.579 348.389 250.407 364.502 244.385L369.141 243.408C375.814 246.012 379.15 250.977 379.15 258.301L366.211 286.133C366.211 287.923 367.432 289.144 369.873 289.795C387.939 289.795 398.763 272.217 402.344 237.061V219.482C402.344 205.648 397.705 190.511 388.428 174.072H386.719C370.605 199.788 351.237 225.098 328.613 250L328.369 241.699C343.669 223.307 361.898 198.324 383.057 166.748C375.57 155.192 371.826 143.799 371.826 132.568C373.779 109.131 381.185 97.4121 394.043 97.4121ZM383.789 114.014C383.789 121.989 387.207 131.917 394.043 143.799C398.438 129.15 400.635 117.676 400.635 109.375C400.635 106.12 399.333 104.004 396.729 103.027C388.102 103.841 383.789 107.503 383.789 114.014ZM564.209 21.2402H572.754C574.056 21.2402 574.707 22.2168 574.707 24.1699L546.143 82.2754L567.139 84.2285C578.044 84.2285 593.587 72.4284 613.77 48.8281C618.815 52.4089 621.338 56.2337 621.338 60.3027V62.2559C621.338 76.0905 603.271 85.612 567.139 90.8203H563.232C551.839 90.1693 544.84 89.1927 542.236 87.8906C493.734 180.501 464.518 240.885 454.59 269.043L453.613 274.658C453.613 276.449 455.241 278.076 458.496 279.541C469.401 279.541 489.665 260.173 519.287 221.436L524.17 226.074C495.524 269.206 472.982 292.399 456.543 295.654H452.637C442.057 295.654 436.035 287.679 434.57 271.729V264.16C434.57 233.236 457.438 171.956 503.174 80.3223H502.197C481.038 80.3223 463.542 88.5417 449.707 104.98C444.661 99.2839 442.139 93.5872 442.139 87.8906C442.139 77.9622 452.311 70.9635 472.656 66.8945H480.225L508.789 72.7539C525.391 38.4115 543.864 21.2402 564.209 21.2402ZM567.383 96.4355C576.172 96.4355 580.566 101.807 580.566 112.549C580.566 123.942 576.742 138.509 569.092 156.25H571.045C572.673 156.25 585.368 148.275 609.131 132.324L612.793 131.348H617.676C622.721 131.348 625.244 134.196 625.244 139.893C625.244 150.309 607.829 190.837 572.998 261.475L570.068 270.996C570.394 272.624 572.021 273.844 574.951 274.658C584.88 274.658 602.214 257.65 626.953 223.633L630.859 228.271V230.225C599.935 273.844 576.172 295.654 559.57 295.654C550.13 294.678 545.41 289.958 545.41 281.494V278.564C545.41 262.939 559.001 226.237 586.182 168.457L587.158 163.818L585.205 161.865H584.473C570.475 161.865 561.93 166.911 558.838 177.002C544.84 202.555 525.228 229.492 500 257.812L496.094 251.953V250.977C523.926 216.471 542.236 187.744 551.025 164.795C542.887 159.424 538.818 148.275 538.818 131.348C538.818 113.932 545.736 102.295 559.57 96.4355H567.383ZM547.363 138.184C547.363 146.322 549.886 152.018 554.932 155.273C559.977 141.439 562.5 130.697 562.5 123.047V111.572L560.547 105.957C551.758 108.561 547.363 118.978 547.363 137.207V138.184ZM772.705 114.502H777.588C782.959 114.502 788.33 118.652 793.701 126.953C749.756 214.193 727.783 263.672 727.783 275.391C728.434 277.995 730.306 279.297 733.398 279.297C741.699 278.646 760.905 259.44 791.016 221.68H791.992L795.654 225.586V226.562C766.357 269.368 743.408 292.318 726.807 295.41H719.238C710.612 295.41 705.811 288.411 704.834 274.414V266.846C684.489 287.842 665.039 298.34 646.484 298.34H638.672C623.372 298.34 615.723 285.563 615.723 260.01V253.418C615.723 218.913 638.102 182.21 682.861 143.311C699.788 131.755 712.809 125.977 721.924 125.977H729.736C736.735 125.977 744.059 130.452 751.709 139.404C758.87 122.803 765.869 114.502 772.705 114.502ZM652.1 260.01V265.869C652.1 278.564 656.901 284.912 666.504 284.912C676.432 284.912 690.755 271.81 709.473 245.605C721.68 207.194 733.805 175.293 745.85 149.902C742.757 140.951 737.712 136.475 730.713 136.475C711.019 142.334 690.592 164.388 669.434 202.637C657.878 224.609 652.1 243.734 652.1 260.01Z" fill="white"/>
</svg>
