<svg width="1024" height="1024" viewBox="0 0 1024 1024" fill="none" xmlns="http://www.w3.org/2000/svg">
<g clip-path="url(#clip0_313_203)">
<rect width="1024" height="1024" fill="#8E51FF"/>
<path d="M443.484 594.781C443.484 677.984 403.641 724.859 327.469 724.859C249.539 724.859 205.594 677.984 205.594 594.781V1.22656C205.594 -83.1484 247.195 -128.852 324.539 -128.852C401.883 -128.852 443.484 -83.1484 443.484 1.22656V293.023H456.961L622.195 119.586C652.078 87.9453 679.031 75.0547 715.359 75.0547C775.125 75.0547 817.898 117.828 817.898 177.594C817.898 208.062 807.352 233.258 784.5 256.109L666.141 372.711L795.633 525.055C822 555.523 834.891 586.578 834.891 618.219C834.891 678.57 788.602 724.859 727.664 724.859C685.477 724.859 654.422 709.039 625.711 674.469L479.227 493.414L443.484 529.156V594.781Z" fill="white"/>
</g>
<defs>
<clipPath id="clip0_313_203">
<rect width="1024" height="1024" fill="white"/>
</clipPath>
</defs>
</svg>
