<svg width="114" height="37" viewBox="0 0 114 37" fill="none" xmlns="http://www.w3.org/2000/svg">
<path d="M18.9712 29.9942C17.5709 29.9942 16.4584 29.2917 15.3074 27.7305L9.62948 19.8855L7.57698 21.9736V25.8571C7.57698 28.5306 6.27259 29.9942 3.89399 29.9942C1.41949 29.9942 0 28.4916 0 25.8571V7.10338C0 4.44937 1.36194 2.96624 3.7789 2.96624C6.21504 2.96624 7.57698 4.46888 7.57698 7.10338V13.3091H8.01817L15.9404 4.44937C16.8612 3.4346 17.7244 2.98576 18.7602 2.98576C20.6401 2.98576 22.0979 4.44937 22.0979 6.3423C22.0979 7.25949 21.7335 8.02057 20.8511 8.97679L15.2499 15.0849L21.1388 23.0469C22.2322 24.5496 22.5583 25.3302 22.5583 26.384C22.5583 28.5111 21.1005 29.9942 18.9712 29.9942Z" fill="#101010"/>
<path d="M29.4639 29.9942C27.0853 29.9942 25.8001 28.5696 25.8001 25.9156V5.65928C25.8001 3.00527 27.0853 1.56118 29.4639 1.56118C31.8233 1.56118 33.1277 3.00527 33.1277 5.65928V25.9156C33.1277 28.5696 31.8233 29.9942 29.4639 29.9942Z" fill="#101010"/>
<path d="M37.2519 3.41508C37.2519 1.42458 38.8248 0 41.0692 0C43.2943 0 44.8672 1.42458 44.8672 3.41508C44.8672 5.44462 43.2943 6.8692 41.0692 6.8692C38.8248 6.8692 37.2519 5.44462 37.2519 3.41508ZM44.733 25.9156C44.733 28.5696 43.4478 29.9942 41.0692 29.9942C38.6906 29.9942 37.4054 28.5696 37.4054 25.9156V12.7431C37.4054 10.0891 38.6906 8.66456 41.0692 8.66456C43.4478 8.66456 44.733 10.0891 44.733 12.7431V25.9156Z" fill="#101010"/>
<path d="M56.1464 32.9019C56.1464 35.5559 54.8612 37 52.4634 37C50.0848 37 48.7996 35.5559 48.7996 32.9019V12.7431C48.7996 10.0891 50.0848 8.66456 52.4634 8.66456C54.6118 8.66456 55.9162 9.81593 56.1272 11.9821V12.1382H56.4917C57.3165 9.9135 59.4649 8.52795 62.2655 8.52795C66.9844 8.52795 69.6507 12.0601 69.6507 18.2853V20.1783C69.6507 26.4035 66.946 30.0137 62.2655 30.0137C59.4841 30.0137 57.3549 28.6867 56.4917 26.462H56.1464V32.9019ZM56.1464 20.0612C56.1464 22.7347 57.2781 24.3349 59.1196 24.3349C60.9803 24.3349 62.0545 22.7152 62.0545 19.9636V18.5585C62.0545 15.7679 60.9803 14.1872 59.1005 14.1872C57.259 14.1872 56.1464 15.7679 56.1464 18.5V20.0612Z" fill="#101010"/>
<path d="M82.6371 29.9942C80.6037 29.9942 79.1651 28.7062 79.1651 26.8523C79.1651 26.1108 79.3761 25.2131 79.9132 23.5543L84.8622 8.43038C86.1282 4.50791 87.9505 2.96624 91.365 2.96624C94.7602 2.96624 96.5442 4.4884 97.8294 8.43038L102.74 23.5543C103.162 24.9204 103.373 25.8571 103.373 26.6572C103.373 28.6867 101.934 29.9942 99.7668 29.9942C97.7718 29.9942 96.6017 28.8623 95.8728 26.2278L95.3549 24.4715H86.9722L86.4543 26.2278C85.7062 28.9404 84.632 29.9942 82.6371 29.9942ZM88.4301 19.0074H93.9162L91.4033 9.65981H91.0005L88.4301 19.0074Z" fill="#101010"/>
<path d="M110.259 29.9942C107.804 29.9942 106.423 28.4916 106.423 25.8571V7.10338C106.423 4.44937 107.785 2.96624 110.202 2.96624C112.638 2.96624 114 4.46888 114 7.10338V25.8571C114 28.5111 112.676 29.9942 110.259 29.9942Z" fill="#101010"/>
</svg>
